<svg width="65" height="49" viewBox="0 0 65 49" fill="none" xmlns="http://www.w3.org/2000/svg">
<path fill-rule="evenodd" clip-rule="evenodd" d="M10.1194 46.5494C10.1194 46.0126 10.3327 45.4978 10.7122 45.1183C11.0918 44.7387 11.6065 44.5255 12.1433 44.5255H52.621C53.1578 44.5255 53.6726 44.7387 54.0521 45.1183C54.4317 45.4978 54.6449 46.0126 54.6449 46.5494C54.6449 47.0861 54.4317 47.6009 54.0521 47.9805C53.6726 48.36 53.1578 48.5732 52.621 48.5732H12.1433C11.6065 48.5732 11.0918 48.36 10.7122 47.9805C10.3327 47.6009 10.1194 47.0861 10.1194 46.5494ZM8.09554 0H56.6688C56.6688 0 64.7643 0 64.7643 8.09554V32.3822C64.7643 32.3822 64.7643 40.4777 56.6688 40.4777H8.09554C8.09554 40.4777 0 40.4777 0 32.3822V8.09554C0 8.09554 0 0 8.09554 0Z" fill="black"/>
</svg>
