<svg width="21" height="20" viewBox="0 0 21 20" fill="none" xmlns="http://www.w3.org/2000/svg">
<g clip-path="url(#clip0_757_21)">
<path d="M17.9238 0H3.07617C1.38011 0 0 1.31439 0 2.92969V17.0703C0 18.6856 1.38011 20 3.07617 20H17.9238C19.6199 20 21 18.6856 21 17.0703V2.92969C21 1.31439 19.6199 0 17.9238 0ZM10.541 15.2344C7.48775 15.2344 5.00391 12.8688 5.00391 9.96094C5.00391 7.05307 7.48775 4.6875 10.541 4.6875C13.5943 4.6875 16.0781 7.05307 16.0781 9.96094C16.0781 12.8688 13.5943 15.2344 10.541 15.2344ZM16.6934 5.85938C15.6757 5.85938 14.8477 5.0708 14.8477 4.10156C14.8477 3.13232 15.6757 2.34375 16.6934 2.34375C17.7111 2.34375 18.5391 3.13232 18.5391 4.10156C18.5391 5.0708 17.7111 5.85938 16.6934 5.85938Z" fill="white"/>
<path d="M16.6934 3.51562C16.3539 3.51562 16.0781 3.77823 16.0781 4.10156C16.0781 4.4249 16.3539 4.6875 16.6934 4.6875C17.0329 4.6875 17.3086 4.4249 17.3086 4.10156C17.3086 3.77823 17.0329 3.51562 16.6934 3.51562Z" fill="white"/>
<path d="M10.541 5.85938C8.1666 5.85938 6.23438 7.69958 6.23438 9.96094C6.23438 12.2223 8.1666 14.0625 10.541 14.0625C12.9154 14.0625 14.8477 12.2223 14.8477 9.96094C14.8477 7.69958 12.9154 5.85938 10.541 5.85938Z" fill="white"/>
</g>
<defs>
<clipPath id="clip0_757_21">
<rect width="21" height="20" fill="white"/>
</clipPath>
</defs>
</svg>
