<svg width="81" height="74" viewBox="0 0 81 74" fill="none" xmlns="http://www.w3.org/2000/svg">
<path d="M8.1 0C3.645 0 0 3.7 0 8.22222V20.5556H81V8.22222C81 6.04155 80.1466 3.9502 78.6276 2.40823C77.1085 0.866267 75.0483 0 72.9 0H8.1ZM32.4 8.22222H48.6V12.3333H32.4V8.22222ZM0 24.6667V45.2222H81V24.6667H0ZM32.4 32.8889H48.6V37H32.4V32.8889ZM0 49.3333V61.6667C0 63.8473 0.85339 65.9387 2.37243 67.4807C3.89148 69.0226 5.95175 69.8889 8.1 69.8889V74H16.2V69.8889H64.8V74H72.9V69.8889C77.3955 69.8889 81 66.23 81 61.6667V49.3333H0ZM32.4 57.5556H48.6V61.6667H32.4V57.5556Z" fill="black"/>
</svg>
