<svg width="38" height="74" viewBox="0 0 38 74" fill="none" xmlns="http://www.w3.org/2000/svg">
<path d="M34.5835 0H2.96082C1.32624 0 0 1.3246 0 2.96V26.5158H37.5426V2.96C37.5435 1.3246 36.218 0 34.5835 0ZM6.62546 17.7921C6.62546 18.2829 6.22751 18.6792 5.73746 18.6792C5.2466 18.6792 4.84946 18.2829 4.84946 17.7921V8.72377C4.84946 8.23291 5.2466 7.8366 5.73746 7.8366C6.22751 7.8366 6.62546 8.23291 6.62546 8.72377V17.7921Z" fill="black"/>
<path d="M0.000488281 28.2762V68.769C0.000488281 70.4028 1.32591 71.729 2.96213 71.729H6.18113V72.4337C6.18113 73.2986 6.88248 74 7.74664 74C8.61079 74 9.31297 73.2978 9.31297 72.4337V71.729H28.2315V72.4337C28.2315 73.2986 28.9328 74 29.7978 74C30.662 74 31.3633 73.2978 31.3633 72.4337V71.729H34.5815C36.2169 71.729 37.5431 70.4036 37.5431 68.769V28.2762H0.000488281ZM6.62513 47.1989C6.62513 47.6897 6.22717 48.086 5.73713 48.086C5.24626 48.086 4.84913 47.6897 4.84913 47.1989V33.8402C4.84913 33.3494 5.24626 32.953 5.73713 32.953C6.22717 32.953 6.62513 33.3494 6.62513 33.8402V47.1989Z" fill="black"/>
</svg>
