<svg width="233" height="64" viewBox="0 0 233 64" fill="none" xmlns="http://www.w3.org/2000/svg">
<g clip-path="url(#clip0_757_41)">
<path d="M4.20604 1.47693H228.79C230.288 1.47693 231.497 2.68759 231.497 4.17354V59.7795C231.497 61.2655 230.288 62.4761 228.79 62.4761H4.20604C2.70792 62.4761 1.49951 61.2655 1.49951 59.7795V4.17354C1.49951 2.68758 2.70793 1.47693 4.20604 1.47693Z" stroke="white" stroke-width="3"/>
<path d="M196.13 36.1578C196.027 36.6805 195.848 37.1368 195.595 37.5286C195.342 37.9206 195.011 38.2397 194.601 38.4819C194.192 38.7261 193.682 38.8486 193.072 38.8486C192.479 38.8486 191.974 38.7261 191.556 38.4819C191.137 38.2397 190.802 37.9206 190.549 37.5286C190.298 37.1368 190.114 36.6805 190 36.1578C189.887 35.6362 189.83 35.1043 189.83 34.5662C189.83 34.007 189.884 33.4676 189.988 32.9463C190.092 32.4238 190.271 31.9627 190.524 31.5602C190.776 31.1608 191.108 30.8345 191.517 30.5826C191.925 30.3301 192.435 30.2022 193.046 30.2022C193.639 30.2022 194.139 30.3301 194.548 30.5826C194.959 30.8345 195.293 31.1643 195.555 31.574C195.818 31.9836 196.005 32.4499 196.118 32.9715C196.232 33.4943 196.288 34.0258 196.288 34.5662C196.288 35.1043 196.235 35.6363 196.13 36.1579L196.13 36.1578ZM199.634 31.9135C199.389 31.0351 199.015 30.2642 198.509 29.6023C198.004 28.941 197.369 28.4093 196.602 28.0095C195.834 27.6083 194.919 27.4091 193.856 27.4091C193.02 27.4091 192.253 27.5737 191.556 27.9046C190.859 28.2357 190.284 28.7668 189.831 29.4982H189.78V27.7737H186.25V46.0051H189.961V39.6063H190.014C190.467 40.2685 191.047 40.7683 191.752 41.1069C192.458 41.4464 193.23 41.6172 194.066 41.6172C195.059 41.6172 195.926 41.4242 196.667 41.0421C197.407 40.6596 198.027 40.1452 198.523 39.5006C199.02 38.8561 199.389 38.117 199.634 37.2812C199.879 36.445 200 35.5746 200 34.6694C200 33.7118 199.879 32.7937 199.634 31.9136V31.9135ZM181.336 36.1579C181.23 36.6806 181.051 37.1369 180.799 37.5287C180.547 37.9207 180.215 38.2398 179.804 38.482C179.396 38.7262 178.886 38.8487 178.276 38.8487C177.683 38.8487 177.18 38.7262 176.761 38.482C176.342 38.2398 176.007 37.9207 175.754 37.5287C175.501 37.1369 175.319 36.6806 175.205 36.1579C175.091 35.6363 175.036 35.1044 175.036 34.5663C175.036 34.0071 175.087 33.4676 175.191 32.9464C175.297 32.4239 175.475 31.9628 175.728 31.5603C175.979 31.1609 176.311 30.8346 176.722 30.5827C177.131 30.3302 177.639 30.2023 178.25 30.2023C178.842 30.2023 179.345 30.3302 179.753 30.5827C180.163 30.8346 180.499 31.1644 180.76 31.5741C181.021 31.9837 181.208 32.45 181.322 32.9716C181.436 33.4943 181.491 34.0259 181.491 34.5663C181.491 35.1044 181.44 35.6363 181.336 36.1579L181.336 36.1579ZM183.714 29.6025C183.209 28.9412 182.572 28.4095 181.805 28.0097C181.038 27.6085 180.124 27.4093 179.061 27.4093C178.224 27.4093 177.458 27.5739 176.761 27.9048C176.062 28.2359 175.489 28.767 175.036 29.4984H174.983V27.7739H171.453V46.0053H175.167V39.6065H175.217C175.67 40.2687 176.251 40.7685 176.957 41.1071C177.661 41.4466 178.433 41.6174 179.27 41.6174C180.264 41.6174 181.13 41.4244 181.871 41.0423C182.611 40.6598 183.23 40.1454 183.727 39.5008C184.224 38.8563 184.593 38.1172 184.839 37.2814C185.081 36.4452 185.204 35.5748 185.204 34.6696C185.204 33.712 185.081 32.7939 184.839 31.9138C184.593 31.0354 184.219 30.2644 183.714 29.6025V29.6025ZM159.299 34.069L161.73 27.2257H161.782L164.135 34.069H159.299ZM159.691 22.6291L152.633 41.2769H156.764L158.227 37.124H165.207L166.618 41.2769H170.879L163.901 22.6291H159.691ZM152.319 35.3617C152.075 34.9352 151.752 34.5783 151.351 34.2901C150.951 34.0037 150.492 33.7724 149.979 33.5975C149.464 33.4243 148.938 33.2775 148.397 33.1551C147.874 33.0327 147.361 32.9195 146.856 32.8148C146.35 32.7098 145.901 32.5924 145.508 32.4627C145.117 32.3318 144.8 32.1631 144.555 31.9524C144.311 31.744 144.19 31.4746 144.19 31.1432C144.19 30.8646 144.258 30.6429 144.398 30.4771C144.538 30.3125 144.708 30.1859 144.908 30.0979C145.109 30.0115 145.33 29.9553 145.574 29.9283C145.818 29.9026 146.046 29.8903 146.254 29.8903C146.917 29.8903 147.492 30.0162 147.981 30.2685C148.467 30.5211 148.738 31.0043 148.79 31.7177H152.319C152.249 30.8825 152.036 30.1907 151.678 29.6407C151.321 29.0931 150.872 28.6532 150.332 28.3229C149.793 27.9919 149.178 27.7573 148.489 27.6176C147.8 27.4781 147.091 27.4093 146.36 27.4093C145.627 27.4093 144.912 27.4746 144.216 27.6038C143.518 27.7351 142.891 27.9624 142.334 28.2838C141.775 28.6058 141.327 29.0447 140.987 29.6024C140.646 30.1594 140.477 30.8742 140.477 31.7441C140.477 32.3361 140.6 32.8377 140.844 33.2464C141.086 33.6561 141.41 33.9943 141.809 34.2645C142.211 34.5343 142.669 34.7528 143.183 34.917C143.697 35.0841 144.224 35.2267 144.763 35.3491C146.089 35.6281 147.122 35.9057 147.862 36.1853C148.603 36.4633 148.973 36.881 148.973 37.4388C148.973 37.7695 148.895 38.0423 148.738 38.2604C148.581 38.4792 148.385 38.6522 148.15 38.7829C147.913 38.9141 147.652 39.0104 147.366 39.0699C147.078 39.1314 146.803 39.1621 146.542 39.1621C146.176 39.1621 145.823 39.1182 145.484 39.0314C145.143 38.9442 144.843 38.809 144.582 38.6261C144.32 38.4436 144.106 38.209 143.941 37.9209C143.776 37.6334 143.692 37.2909 143.692 36.8894H140.163C140.199 37.7948 140.403 38.5483 140.779 39.1487C141.152 39.7495 141.631 40.2322 142.215 40.5985C142.799 40.9635 143.466 41.2253 144.216 41.3825C144.965 41.5388 145.732 41.6174 146.515 41.6174C147.282 41.6174 148.036 41.5427 148.777 41.396C149.517 41.2475 150.175 40.9905 150.751 40.6242C151.327 40.2592 151.791 39.7761 152.149 39.175C152.506 38.5734 152.684 37.8293 152.684 36.9412C152.684 36.3134 152.562 35.7882 152.319 35.3618L152.319 35.3617ZM136.975 23.7261H133.262V27.7737H131.015V30.2546H133.262V38.2213C133.262 38.9013 133.377 39.4491 133.603 39.8666C133.829 40.2839 134.138 40.608 134.53 40.8337C134.922 41.0602 135.376 41.212 135.89 41.2904C136.403 41.3682 136.95 41.4077 137.523 41.4077C137.891 41.4077 138.264 41.3983 138.648 41.3826C139.031 41.3647 139.379 41.3308 139.694 41.2771V38.4038C139.519 38.4392 139.336 38.4664 139.144 38.4822C138.953 38.4999 138.752 38.5092 138.543 38.5092C137.916 38.5092 137.497 38.4038 137.288 38.195C137.08 37.9867 136.975 37.5686 136.975 36.9412V30.255H139.694V27.7741H136.975L136.975 23.7261ZM126.335 36.0523C126.335 36.263 126.314 36.5414 126.27 36.8891C126.227 37.2383 126.109 37.5809 125.917 37.9205C125.726 38.26 125.428 38.5528 125.029 38.7954C124.628 39.04 124.062 39.1618 123.329 39.1618C123.033 39.1618 122.745 39.1357 122.466 39.0824C122.187 39.031 121.944 38.9388 121.735 38.8086C121.526 38.6781 121.36 38.4995 121.238 38.273C121.116 38.0468 121.055 37.7692 121.055 37.4384C121.055 37.0904 121.116 36.8012 121.238 36.576C121.36 36.3507 121.521 36.1627 121.722 36.0143C121.921 35.8664 122.157 35.7491 122.427 35.6612C122.697 35.5744 122.971 35.5049 123.251 35.4526C123.547 35.4014 123.844 35.3565 124.139 35.3219C124.436 35.2879 124.719 35.2431 124.989 35.1917C125.26 35.1396 125.512 35.0734 125.748 34.995C125.983 34.9166 126.178 34.8092 126.335 34.6692L126.335 36.0523ZM130.047 38.2731V31.2483C130.047 30.4287 129.865 29.7721 129.498 29.2766C129.133 28.7799 128.662 28.3929 128.087 28.1142C127.511 27.8358 126.875 27.6482 126.178 27.5527C125.481 27.457 124.793 27.4093 124.114 27.4093C123.365 27.4093 122.619 27.4827 121.879 27.6311C121.137 27.779 120.472 28.0276 119.879 28.375C119.286 28.7233 118.797 29.1853 118.415 29.7593C118.031 30.3338 117.813 31.0565 117.761 31.9274H121.473C121.542 31.1956 121.787 30.6729 122.206 30.3599C122.624 30.0463 123.198 29.8904 123.931 29.8904C124.262 29.8904 124.571 29.9122 124.859 29.9554C125.146 29.9994 125.399 30.0852 125.617 30.2165C125.835 30.347 126.009 30.5293 126.139 30.7651C126.27 30.9999 126.335 31.3184 126.335 31.7179C126.353 32.1021 126.239 32.392 125.996 32.5926C125.751 32.7939 125.421 32.9467 125.002 33.0498C124.584 33.1552 124.105 33.2338 123.564 33.2844C123.024 33.3377 122.475 33.4087 121.918 33.4945C121.36 33.5819 120.806 33.6992 120.259 33.8472C119.71 33.9943 119.22 34.2175 118.794 34.5122C118.366 34.8097 118.018 35.2052 117.747 35.7017C117.478 36.1982 117.343 36.8299 117.343 37.595C117.343 38.2914 117.46 38.8919 117.696 39.3964C117.931 39.9028 118.257 40.319 118.676 40.6503C119.095 40.9812 119.582 41.2253 120.14 41.3825C120.697 41.5387 121.298 41.6173 121.944 41.6173C122.78 41.6173 123.6 41.495 124.4 41.2524C125.202 41.0068 125.9 40.5818 126.493 39.9714C126.51 40.1977 126.54 40.4205 126.583 40.6376C126.627 40.8543 126.684 41.0689 126.754 41.2771H130.518C130.344 41 130.221 40.5818 130.152 40.0236C130.082 39.4668 130.047 38.8845 130.047 38.2734L130.047 38.2731ZM114.755 28.9357C114.389 28.4567 113.888 28.083 113.253 27.8124C112.616 27.5439 111.801 27.4091 110.808 27.4091C110.111 27.4091 109.397 27.5869 108.664 27.9445C107.932 28.3005 107.331 28.8713 106.861 29.6553H106.782V22.6289H103.07V41.2767H106.782V34.199C106.782 32.8237 107.009 31.8362 107.462 31.2344C107.915 30.6344 108.647 30.3337 109.658 30.3337C110.546 30.3337 111.165 30.6078 111.514 31.157C111.863 31.7049 112.037 32.5368 112.037 33.6506V41.277H115.749V32.9717C115.749 32.1365 115.674 31.3751 115.527 30.6859C115.378 29.9993 115.121 29.4155 114.755 28.936L114.755 28.9357ZM95.1498 35.4793H95.0982L91.9091 22.6292H88.0663L84.8244 35.3227H84.7724L81.8184 22.6292H77.7148L82.6552 41.277H86.812L89.922 28.5836H89.9744L93.1374 41.277H97.2155L102.235 22.6292H98.2092L95.1498 35.4793Z" fill="white"/>
<path d="M43.6224 45.1526L44.204 45.497C46.6479 46.9456 49.4498 47.7117 52.307 47.7133H52.3133C61.0883 47.7133 68.23 40.5815 68.2333 31.8162C68.2347 27.5682 66.5804 23.5743 63.5746 20.5693C60.5686 17.5648 56.572 15.9091 52.319 15.9073C43.5374 15.9073 36.3956 23.038 36.3923 31.8032C36.3911 34.8069 37.2323 37.7322 38.8262 40.2629L39.2051 40.8645L37.5964 46.7306L43.6224 45.1526ZM32.9978 51.2746L35.7152 41.3639C34.0391 38.4633 33.1573 35.173 33.1587 31.8023C33.1628 21.2569 41.7548 12.6775 52.3137 12.6775C57.4373 12.6797 62.2465 14.6714 65.8629 18.2866C69.4789 21.9017 71.4698 26.7072 71.4681 31.8178C71.4636 42.3627 62.8698 50.9437 52.3137 50.9437C52.3129 50.9437 52.3141 50.9437 52.3137 50.9437H52.3055C49.0998 50.9426 45.9499 50.1394 43.1523 48.6154L32.9978 51.2746Z" fill="white"/>
<path d="M33.1582 31.8072C33.157 35.1778 34.0388 38.4685 35.7149 41.3688L32.9973 51.2789L43.1515 48.6196C45.9493 50.1435 49.099 50.9467 52.3047 50.948H52.3129C62.869 50.948 71.4629 42.3669 71.4673 31.822C71.4691 26.7112 69.4782 21.9058 65.8621 18.2909C62.2454 14.6759 57.4366 12.684 52.3129 12.6818C41.7545 12.6818 33.1623 21.2612 33.1579 31.8066L33.1582 31.8072ZM39.2048 40.8691L38.8257 40.2678C37.2319 37.7367 36.3906 34.8114 36.3918 31.808C36.3953 23.0433 43.5369 15.9121 52.3185 15.9121C56.5711 15.9138 60.5678 17.5697 63.5742 20.5741C66.5802 23.5788 68.2342 27.573 68.2331 31.8205C68.2292 40.5858 61.0874 47.7175 52.3125 47.7175H52.3062C49.449 47.7159 46.6469 46.9498 44.2032 45.5014L43.6216 45.157L37.5957 46.735L39.2048 40.8691ZM52.3129 50.948H52.3131H52.3129C52.3127 50.948 52.3125 50.948 52.3129 50.948Z" fill="white"/>
<path fill-rule="evenodd" clip-rule="evenodd" d="M47.5259 23.8102C47.1673 23.0141 46.79 22.9981 46.449 22.9841C46.1699 22.9723 45.8506 22.973 45.5318 22.973C45.2125 22.973 44.694 23.0927 44.2556 23.5711C43.8168 24.0495 42.5803 25.2059 42.5803 27.5578C42.5803 29.9099 44.2956 32.1826 44.5345 32.5019C44.7739 32.8205 47.8456 37.8014 52.7099 39.7175C56.7529 41.3099 57.5756 40.9931 58.4531 40.9133C59.3306 40.8338 61.2848 39.7573 61.6835 38.641C62.0824 37.5249 62.0824 36.5681 61.9628 36.3683C61.8432 36.1691 61.524 36.0494 61.0454 35.8105C60.5666 35.5714 58.2137 34.4148 57.7751 34.2553C57.3363 34.096 57.0172 34.0164 56.6979 34.495C56.3789 34.973 55.4623 36.0494 55.183 36.3683C54.9038 36.6878 54.6245 36.7277 54.146 36.4885C53.6672 36.2487 52.1257 35.7444 50.2971 34.116C48.8743 32.8489 47.9138 31.2842 47.6345 30.8055C47.3554 30.3275 47.6047 30.0686 47.8447 29.8302C48.0597 29.616 48.3234 29.2721 48.5628 28.9931C48.8016 28.7139 48.8813 28.5147 49.0408 28.1958C49.2005 27.8767 49.1207 27.5976 49.0011 27.3584C48.8813 27.1193 47.9512 24.7553 47.5256 23.81" fill="white"/>
</g>
<defs>
<clipPath id="clip0_757_41">
<rect width="233" height="64" fill="white"/>
</clipPath>
</defs>
</svg>
