<svg width="81" height="56" viewBox="0 0 81 56" fill="none" xmlns="http://www.w3.org/2000/svg">
<path d="M8.1 0C5.95175 0 3.89148 0.842854 2.37243 2.34315C0.85339 3.84344 0 5.87827 0 8V48C0 50.1217 0.85339 52.1566 2.37243 53.6569C3.89148 55.1571 5.95175 56 8.1 56H72.9C75.0483 56 77.1085 55.1571 78.6276 53.6569C80.1466 52.1566 81 50.1217 81 48V8C81 5.87827 80.1466 3.84344 78.6276 2.34315C77.1085 0.842854 75.0483 0 72.9 0H8.1ZM8.1 8H56.7V48H8.1V8ZM68.85 8C69.9241 8 70.9543 8.42143 71.7138 9.17157C72.4733 9.92172 72.9 10.9391 72.9 12C72.9 13.0609 72.4733 14.0783 71.7138 14.8284C70.9543 15.5786 69.9241 16 68.85 16C67.7759 16 66.7457 15.5786 65.9862 14.8284C65.2267 14.0783 64.8 13.0609 64.8 12C64.8 10.9391 65.2267 9.92172 65.9862 9.17157C66.7457 8.42143 67.7759 8 68.85 8ZM16.2 16V24H48.6V16H16.2ZM68.85 24C69.9241 24 70.9543 24.4214 71.7138 25.1716C72.4733 25.9217 72.9 26.9391 72.9 28C72.9 29.0609 72.4733 30.0783 71.7138 30.8284C70.9543 31.5786 69.9241 32 68.85 32C67.7759 32 66.7457 31.5786 65.9862 30.8284C65.2267 30.0783 64.8 29.0609 64.8 28C64.8 26.9391 65.2267 25.9217 65.9862 25.1716C66.7457 24.4214 67.7759 24 68.85 24Z" fill="black"/>
</svg>
