<svg width="21" height="18" viewBox="0 0 21 18" fill="none" xmlns="http://www.w3.org/2000/svg">
<path d="M7.83443 17.2048C6.92633 17.2048 5.99162 17.1347 5.05131 16.9944C3.39515 16.7469 1.71864 15.9218 1.24424 15.6748L0 15.0269L1.3471 14.605C2.81965 14.1439 3.71542 13.8578 4.82428 13.4098C3.71398 12.8977 2.85827 11.9765 2.44635 10.7857L2.13296 9.87965L2.38995 9.91703C2.14626 9.68311 1.95384 9.44569 1.80468 9.22977C1.2742 8.46241 0.993343 7.52476 1.0531 6.72123L1.11206 5.93037L1.60922 6.11378C1.39949 5.73658 1.24793 5.33375 1.15885 4.91154C0.941754 3.88187 1.12344 2.78797 1.67058 1.8314L2.10364 1.07426L2.68283 1.73679C4.51459 3.83244 6.83468 5.07557 9.58833 5.43949C9.47585 4.70112 9.56013 3.98853 9.83907 3.3498C10.1638 2.60609 10.7416 1.97544 11.5093 1.52592C12.362 1.0268 13.396 0.784951 14.4209 0.844918C15.5083 0.908547 16.4956 1.29658 17.2797 1.96781C17.6626 1.87305 17.9447 1.77189 18.3261 1.63517C18.5555 1.55293 18.8157 1.45954 19.1412 1.35273L20.3409 0.959053L19.5586 3.08704C19.6102 3.08292 19.6634 3.07941 19.719 3.07713L21.0001 3.02189L20.2429 4.00745C20.1995 4.06391 20.1884 4.07993 20.173 4.10206C20.112 4.18964 20.0361 4.29859 18.9967 5.62031C18.7365 5.95127 18.6066 6.38233 18.6308 6.8343C18.7229 8.55183 18.5017 10.1058 17.9728 11.4528C17.4726 12.7272 16.6975 13.8207 15.6692 14.7028C14.3967 15.7941 12.7742 16.5413 10.8465 16.9234C9.90091 17.1108 8.88546 17.2048 7.83443 17.2048V17.2048Z" fill="white"/>
</svg>
