<svg width="89" height="65" viewBox="0 0 89 65" fill="none" xmlns="http://www.w3.org/2000/svg">
<path d="M46.5227 8.125C46.5227 3.61562 50.1232 0 54.6136 0H68.7727C73.2227 0 76.8636 3.65625 76.8636 8.125V16.9C72.1709 18.5656 68.7727 23.0344 68.7727 28.3156V36.5625H46.5227V8.125ZM20.2273 28.275V36.5625H42.4773V8.125C42.4773 3.61562 38.8768 0 34.3864 0H20.2273C15.7773 0 12.1364 3.65625 12.1364 8.125V16.8594C16.8291 18.525 20.2273 23.0344 20.2273 28.275ZM79.5336 20.4344C75.5691 21.0844 72.8182 24.8625 72.8182 28.925V40.625H16.1818V28.4375C16.1818 26.2826 15.3294 24.216 13.812 22.6923C12.2947 21.1685 10.2368 20.3125 8.09091 20.3125C5.94507 20.3125 3.88711 21.1685 2.36977 22.6923C0.852433 24.216 0 26.2826 0 28.4375V48.75C0 53.2188 3.64091 56.875 8.09091 56.875V65H16.1818V56.875H72.8182V65H80.9091V56.875C85.3591 56.875 89 53.2188 89 48.75V28.4375C89 23.5219 84.5905 19.5812 79.5336 20.4344Z" fill="black"/>
</svg>
