<svg width="81" height="52" viewBox="0 0 81 52" fill="none" xmlns="http://www.w3.org/2000/svg">
<path d="M4.05 6.10352e-05H76.95C79.1775 6.10352e-05 81 1.80006 81 4.00006C81 6.20006 79.1775 8.00006 76.95 8.00006V52.0001H68.85V44.0001H52.65V52.0001H44.55V8.00006H12.15V52.0001H4.05V8.00006C1.8225 8.00006 0 6.20006 0 4.00006C0 1.80006 1.8225 6.10352e-05 4.05 6.10352e-05ZM56.7 18.0001V20.0001H64.8V18.0001C64.8 16.8801 63.909 16.0001 62.775 16.0001H58.725C57.591 16.0001 56.7 16.8801 56.7 18.0001ZM56.7 34.0001V36.0001H64.8V34.0001C64.8 32.8801 63.909 32.0001 62.775 32.0001H58.725C57.591 32.0001 56.7 32.8801 56.7 34.0001Z" fill="black"/>
</svg>
