<svg width="45" height="53" viewBox="0 0 45 53" fill="none" xmlns="http://www.w3.org/2000/svg">
<path fill-rule="evenodd" clip-rule="evenodd" d="M44.4327 13.1443V48.75C44.4327 51.0816 42.5252 52.9884 40.1943 52.9884H4.23834C1.9068 52.9884 0 51.0816 0 48.75V13.1443H44.4327ZM21.733 17.1107C30.04 17.1107 36.7737 23.8451 36.7737 32.1515C36.7737 40.4585 30.04 47.1922 21.733 47.1922C13.4266 47.1922 6.69226 40.4585 6.69226 32.1515C6.69226 23.8451 13.4266 17.1107 21.733 17.1107Z" fill="black"/>
<path fill-rule="evenodd" clip-rule="evenodd" d="M4.23834 0H40.1943C42.5252 0 44.4327 1.90744 44.4327 4.23834V11.2815H0V4.23834C0 1.90744 1.9068 0 4.23834 0ZM5.77544 3.86346H12.7144C13.8805 3.86346 14.8336 4.81719 14.8336 5.98264V6.29794C14.8336 7.46404 13.8805 8.41712 12.7144 8.41712H5.77544C4.60999 8.41712 3.65626 7.46404 3.65626 6.29794V5.98264C3.65626 4.81719 4.60999 3.86346 5.77544 3.86346ZM34.0142 4.38143H39.844V8.17627H34.0142V4.38143ZM18.2133 4.38143H22.0082V8.17627H18.2133V4.38143ZM22.9749 4.38143H26.769V8.17627H22.9749V4.38143Z" fill="black"/>
<path fill-rule="evenodd" clip-rule="evenodd" d="M21.7296 19.6165C25.1919 19.6165 28.3272 21.0202 30.5959 23.2883C32.8646 25.5564 34.2687 28.6908 34.2687 32.1515C34.2687 35.6129 32.8646 38.7473 30.5959 41.0154C28.3272 43.2834 25.1919 44.6872 21.7296 44.6872C18.2673 44.6872 15.1327 43.2834 12.864 41.0154C10.5953 38.7473 9.19116 35.6129 9.19116 32.1515C9.19116 28.6908 10.5953 25.5564 12.864 23.2883C15.1327 21.0202 18.2673 19.6165 21.7296 19.6165ZM10.3032 33.2496C13.6068 34.4241 17.5257 35.1046 21.7296 35.1046C25.9341 35.1046 29.8531 34.4241 33.1561 33.2496C33.1904 32.8883 33.2085 32.5218 33.2085 32.1515C33.2085 28.9834 31.9229 26.1138 29.8466 24.0374C27.7696 21.9616 24.8998 20.6764 21.7296 20.6764C18.56 20.6764 15.6903 21.9616 13.6133 24.0374C11.5369 26.1138 10.2514 28.9834 10.2514 32.1515C10.2514 32.5218 10.2695 32.8883 10.3032 33.2496Z" fill="black"/>
</svg>
