<svg width="65" height="82" viewBox="0 0 65 82" fill="none" xmlns="http://www.w3.org/2000/svg">
<path d="M8.125 0C5.97012 0 3.90349 0.863926 2.37976 2.40172C0.856024 3.93952 0 6.02522 0 8.2V69.7C0 74.251 3.61562 77.9 8.125 77.9V82H16.25V77.9H48.75V82H56.875V77.9C61.3844 77.9 65 74.251 65 69.7V8.2C65 6.02522 64.144 3.93952 62.6202 2.40172C61.0965 0.863926 59.0299 0 56.875 0H8.125ZM8.125 8.2H28.4375V69.7H8.125V8.2ZM36.5625 8.2H56.875V69.7H36.5625V8.2ZM16.25 32.8V45.1H24.375V32.8H16.25ZM40.625 32.8V45.1H48.75V32.8H40.625Z" fill="black"/>
</svg>
