<svg width="78" height="71" viewBox="0 0 78 71" fill="none" xmlns="http://www.w3.org/2000/svg">
<path d="M72.775 29.9754H71.5162V45.4745H69.0772V42.0915V40.9113V25.963L65.4581 23.8387H64.4353V36.4268H54.7582V37.607V41.6194L50.9031 35.404H26.3563L22.5012 41.6194V37.607V36.4268H12.8241V23.8387H11.8013L8.18227 25.963V40.9113V42.0915V45.4745H5.74332V29.9754H4.48451L0 32.6504V50.9818V52.4767V68.6838H1.80954L2.36027 67.8184V52.4767H3.85511V63.1766H5.27127L5.74332 62.2324V52.4767H8.10359V55.309H9.59843L9.99181 54.6009V52.398H12.1947V68.6052H14.0043L14.4763 67.6611V51.6112L15.6565 49.8017V63.1766H17.0726L17.5447 62.2324V46.9694V45.4745H12.7455V42.0915H18.0167V55.309H19.5116L19.9049 54.5222V41.3834L20.849 39.9672V44.137L20.5343 44.6878V70.1H23.524V47.5988H26.5137V58.1413H28.874V47.5988H47.7561V58.1413H50.1164V47.5988H53.4994V70.0213H56.4891V44.6878L56.1744 44.137V39.9672L57.1185 41.3834V54.5222L57.5119 55.309H59.0067V42.0915H64.278V45.4745H59.4788V46.9694V62.2324L59.9508 63.1766H61.367V49.8017L62.5471 51.6112V67.7397L63.0192 68.6838H64.8287V52.4767H67.0316V54.6796L67.425 55.3877H68.9199V52.5553H71.2801V62.3111L71.7522 63.2552H73.1683V52.4767H74.6632V67.8971L75.2139 68.7625H77.0235V52.4767V50.9818V32.6504L72.775 29.9754ZM10.0705 45.4745V42.0915H11.3293V45.4745H10.0705ZM65.9302 45.4745V42.0915H67.189V45.4745H65.9302Z" fill="black"/>
<path d="M35.8762 22.5799V22.6586C35.8762 24.1534 37.135 25.4123 38.6299 25.4123C40.1247 25.4123 41.3835 24.1534 41.3835 22.6586V22.5799H35.8762Z" fill="black"/>
<path d="M40.1248 15.1057V12.7455H39.4167V0H37.8432V12.7455H37.1351V15.1057C34.6175 15.8138 32.7292 18.0954 32.7292 20.7704C32.7292 21.2424 32.8079 21.7145 32.8866 22.1865H44.3732C44.4519 21.7145 44.5306 21.3211 44.5306 20.7704C44.5306 18.0167 42.6424 15.7351 40.1248 15.1057Z" fill="black"/>
</svg>
