<svg width="81" height="56" viewBox="0 0 81 56" fill="none" xmlns="http://www.w3.org/2000/svg">
<path d="M72.9 20V8C72.9 3.6 69.255 0 64.8 0H16.2C11.745 0 8.1 3.6 8.1 8V20C3.645 20 0 23.6 0 28V48H5.3865L7.452 54.12C7.857 55.24 8.91 56 10.125 56C10.7129 55.9991 11.286 55.8176 11.7649 55.4808C12.2438 55.144 12.6048 54.6684 12.798 54.12L14.8635 48H66.177L68.2425 54.12C68.607 55.24 69.66 56 70.875 56C71.4629 55.9991 72.036 55.8176 72.5149 55.4808C72.9938 55.144 73.3548 54.6684 73.548 54.12L75.6135 48H81V28C81 23.6 77.355 20 72.9 20ZM36.45 20H16.2V12C16.2 9.8 18.0225 8 20.25 8H36.45V20ZM64.8 20H44.55V8H60.75C62.9775 8 64.8 9.8 64.8 12V20Z" fill="black"/>
</svg>
